<svg width="25" height="25" viewBox="0 0 25 25" fill="none" xmlns="http://www.w3.org/2000/svg">
<g id="Group 54">
<g id="Group 53">
<g id="Group 31">
<g id="Group">
<path id="Vector" d="M24.4638 12.0903C24.4638 5.70923 18.9878 0.537109 12.2319 0.537109C5.47594 0.537109 0 5.70923 0 12.0903C0 17.857 4.473 22.6366 10.3207 23.5028V15.4291H7.21536V12.0887H10.3207V9.54318C10.3207 6.64826 12.1459 5.04843 14.9409 5.04843C16.2788 5.04843 17.6798 5.27366 17.6798 5.27366V8.11725H16.1368C14.6165 8.11725 14.1431 9.00825 14.1431 9.92078V12.0887H17.536L16.9942 15.4291H14.1448V23.5028C19.9925 22.6366 24.4655 17.857 24.4655 12.0903H24.4638Z" fill="#00ADB5"/>
<path id="Vector_2" d="M16.9927 16.4305L17.5345 13.09H14.1416V10.9222C14.1416 10.008 14.615 9.11863 16.1353 9.11863H17.6783V6.27504C17.6783 6.27504 16.279 6.0498 14.9394 6.0498C12.1445 6.0498 10.3192 7.64963 10.3192 10.5446V13.09H7.21387V16.4305H10.3192V24.5041C10.9416 24.5969 11.5799 24.6449 12.2304 24.6449C12.8809 24.6449 13.5192 24.5969 14.1416 24.5041V16.4305H16.991H16.9927Z" fill="white"/>
</g>
</g>
</g>
</g>
</svg>
